# xmcd
#
# Track frame offsets:
#	150
#	15568
#	33295
#	50330
#	69804
#	85989
#	101530
#	119756
#	135973
#	152639
#	168717
#	197659
#
# Disc length: 2872 seconds
#
# Revision: 0
# Processed by: cddbd v1.5PL3 Copyright (c) Steve Scherf et al.
# Submitted via: dBpowerAMP V4.0
#
DISCID=940b360c
DTITLE=SHeDAISY - Sweet Right Here
DYEAR=1900
DGENRE=Country
TTITLE0=Passenger Seat
TTITLE1=5432 Run
TTITLE2=360  Degrees Of You
TTITLE3=Love Goes On
TTITLE4=I Dare You
TTITLE5=Good Together (Bucket And Chicken)
TTITLE6=Come Home Soon
TTITLE7=Don't Worry 'bout A Thing
TTITLE8=Without A Sound
TTITLE9=Borrowed Home
TTITLE10=Woman's Work
TTITLE11=He's A Hero
EXTD=
EXTT0=
EXTT1=
EXTT2=
EXTT3=
EXTT4=
EXTT5=
EXTT6=
EXTT7=
EXTT8=
EXTT9=
EXTT10=
EXTT11=
PLAYORDER=
